<svg width="14" height="12" viewBox="0 0 14 12" fill="none" xmlns="http://www.w3.org/2000/svg">
<path d="M13.4266 8.83698L11.5834 7.23106C10.9251 6.65752 9.80596 6.88696 9.54264 7.63254C9.34515 8.14875 8.68685 8.43552 8.09438 8.32079C6.77778 8.03402 5.00037 6.54282 4.67122 5.33838C4.47373 4.82217 4.86871 4.24864 5.46118 4.07659C6.31697 3.84718 6.58029 2.87216 5.92199 2.29862L4.07875 0.69271C3.55211 0.291232 2.76215 0.291232 2.30134 0.69271L1.05057 1.78244C-0.200199 2.92952 1.18223 5.96928 4.27625 8.66491C7.37025 11.3606 10.8592 12.6223 12.1758 11.4752L13.4266 10.3855C13.8875 9.92666 13.8875 9.23846 13.4266 8.83698Z" fill="#BDB5AF"/>
</svg>
