<?xml version="1.0" encoding="UTF-8"?>
<svg xmlns="http://www.w3.org/2000/svg" xmlns:xlink="http://www.w3.org/1999/xlink" width="15pt" height="15pt" viewBox="0 0 15 15" version="1.1">
<g id="surface1">
<path style=" stroke:none;fill-rule:nonzero;fill:rgb(0%,0%,0%);fill-opacity:1;" d="M 7.535156 1.847656 C 3.375 1.847656 0 5.253906 0 9.457031 C 0 11.734375 0.984375 13.21875 0.984375 13.21875 L 14.082031 13.21875 C 14.082031 13.21875 15.070312 11.597656 15.070312 9.457031 C 15.070312 5.253906 11.695312 1.847656 7.535156 1.847656 Z M 13.53125 12.292969 L 1.5625 12.289062 C 1.5625 12.289062 0.925781 11.082031 0.925781 9.433594 C 0.925781 5.75 3.894531 2.765625 7.558594 2.765625 C 11.222656 2.765625 14.195312 5.75 14.195312 9.433594 C 14.195312 11.097656 13.53125 12.292969 13.53125 12.292969 Z M 13.53125 12.292969 "/>
<path style=" stroke:none;fill-rule:nonzero;fill:rgb(0%,0%,0%);fill-opacity:1;" d="M 9.664062 3.871094 L 9.570312 3.867188 L 7.558594 7.808594 L 5.476562 3.835938 L 2.625 11.011719 L 1.890625 11.011719 L 1.890625 11.585938 L 5.925781 11.585938 L 5.925781 11.011719 L 5.125 11.011719 L 5.925781 8.769531 L 7.558594 11.585938 L 9.128906 8.769531 L 9.929688 11.011719 L 9.128906 11.011719 L 9.128906 11.585938 L 13.132812 11.585938 L 13.132812 11.011719 L 12.441406 11.011719 Z M 9.664062 3.871094 "/>
</g>
</svg>
