<?xml version="1.0" encoding="UTF-8"?>
<svg xmlns="http://www.w3.org/2000/svg" xmlns:xlink="http://www.w3.org/1999/xlink" width="18pt" height="20pt" viewBox="0 0 18 20" version="1.1">
<g id="surface1">
<path style=" stroke:none;fill-rule:nonzero;fill:rgb(0%,0%,0%);fill-opacity:1;" d="M 17.519531 18.75 L 16.714844 18.75 L 16.714844 0.9375 C 16.714844 0.417969 16.28125 0 15.75 0 L 2.25 0 C 1.71875 0 1.285156 0.417969 1.285156 0.9375 L 1.285156 18.75 L 0.480469 18.75 C 0.214844 18.75 0 18.960938 0 19.21875 L 0 20 L 18 20 L 18 19.21875 C 18 18.960938 17.785156 18.75 17.519531 18.75 Z M 5.144531 2.96875 C 5.144531 2.710938 5.359375 2.5 5.625 2.5 L 7.230469 2.5 C 7.5 2.5 7.714844 2.710938 7.714844 2.96875 L 7.714844 4.53125 C 7.714844 4.789062 7.5 5 7.230469 5 L 5.625 5 C 5.359375 5 5.144531 4.789062 5.144531 4.53125 Z M 5.144531 6.71875 C 5.144531 6.460938 5.359375 6.25 5.625 6.25 L 7.230469 6.25 C 7.5 6.25 7.714844 6.460938 7.714844 6.71875 L 7.714844 8.28125 C 7.714844 8.539062 7.5 8.75 7.230469 8.75 L 5.625 8.75 C 5.359375 8.75 5.144531 8.539062 5.144531 8.28125 Z M 7.230469 12.5 L 5.625 12.5 C 5.359375 12.5 5.144531 12.289062 5.144531 12.03125 L 5.144531 10.46875 C 5.144531 10.210938 5.359375 10 5.625 10 L 7.230469 10 C 7.5 10 7.714844 10.210938 7.714844 10.46875 L 7.714844 12.03125 C 7.714844 12.289062 7.5 12.5 7.230469 12.5 Z M 10.285156 18.75 L 7.714844 18.75 L 7.714844 15.46875 C 7.714844 15.210938 7.929688 15 8.195312 15 L 9.804688 15 C 10.070312 15 10.285156 15.210938 10.285156 15.46875 Z M 12.855469 12.03125 C 12.855469 12.289062 12.640625 12.5 12.375 12.5 L 10.769531 12.5 C 10.5 12.5 10.285156 12.289062 10.285156 12.03125 L 10.285156 10.46875 C 10.285156 10.210938 10.5 10 10.769531 10 L 12.375 10 C 12.640625 10 12.855469 10.210938 12.855469 10.46875 Z M 12.855469 8.28125 C 12.855469 8.539062 12.640625 8.75 12.375 8.75 L 10.769531 8.75 C 10.5 8.75 10.285156 8.539062 10.285156 8.28125 L 10.285156 6.71875 C 10.285156 6.460938 10.5 6.25 10.769531 6.25 L 12.375 6.25 C 12.640625 6.25 12.855469 6.460938 12.855469 6.71875 Z M 12.855469 4.53125 C 12.855469 4.789062 12.640625 5 12.375 5 L 10.769531 5 C 10.5 5 10.285156 4.789062 10.285156 4.53125 L 10.285156 2.96875 C 10.285156 2.710938 10.5 2.5 10.769531 2.5 L 12.375 2.5 C 12.640625 2.5 12.855469 2.710938 12.855469 2.96875 Z M 12.855469 4.53125 "/>
</g>
</svg>
