<?xml version="1.0" encoding="UTF-8"?>
<svg xmlns="http://www.w3.org/2000/svg" xmlns:xlink="http://www.w3.org/1999/xlink" width="18pt" height="20pt" viewBox="0 0 18 20" version="1.1">
<g id="surface1">
<path style=" stroke:none;fill-rule:nonzero;fill:rgb(0%,0%,0%);fill-opacity:1;" d="M 16.070312 0 L 1.929688 0 C 0.898438 0 0 0.875 0 1.875 L 0 18.125 C 0 19.125 0.898438 20 1.929688 20 L 16.070312 20 C 17.101562 20 18 19.125 18 18.125 L 18 1.875 C 18 0.875 17.101562 0 16.070312 0 Z M 5.144531 17 C 5.144531 17.25 4.886719 17.5 4.628906 17.5 L 3.085938 17.5 C 2.828125 17.5 2.570312 17.25 2.570312 17 L 2.570312 15.5 C 2.570312 15.25 2.828125 15 3.085938 15 L 4.628906 15 C 4.886719 15 5.144531 15.25 5.144531 15.5 Z M 5.144531 12 C 5.144531 12.25 4.886719 12.5 4.628906 12.5 L 3.085938 12.5 C 2.828125 12.5 2.570312 12.25 2.570312 12 L 2.570312 10.5 C 2.570312 10.25 2.828125 10 3.085938 10 L 4.628906 10 C 4.886719 10 5.144531 10.25 5.144531 10.5 Z M 10.285156 17 C 10.285156 17.25 10.027344 17.5 9.769531 17.5 L 8.230469 17.5 C 7.972656 17.5 7.714844 17.25 7.714844 17 L 7.714844 15.5 C 7.714844 15.25 7.972656 15 8.230469 15 L 9.769531 15 C 10.027344 15 10.285156 15.25 10.285156 15.5 Z M 10.285156 12 C 10.285156 12.25 10.027344 12.5 9.769531 12.5 L 8.230469 12.5 C 7.972656 12.5 7.714844 12.25 7.714844 12 L 7.714844 10.5 C 7.714844 10.25 7.972656 10 8.230469 10 L 9.769531 10 C 10.027344 10 10.285156 10.25 10.285156 10.5 Z M 15.429688 17 C 15.429688 17.25 15.171875 17.5 14.914062 17.5 L 13.371094 17.5 C 13.113281 17.5 12.855469 17.25 12.855469 17 L 12.855469 10.5 C 12.855469 10.25 13.113281 10 13.371094 10 L 14.914062 10 C 15.171875 10 15.429688 10.25 15.429688 10.5 Z M 15.429688 7 C 15.429688 7.25 15.171875 7.5 14.914062 7.5 L 3.085938 7.5 C 2.828125 7.5 2.570312 7.25 2.570312 7 L 2.570312 3 C 2.570312 2.75 2.828125 2.5 3.085938 2.5 L 14.914062 2.5 C 15.171875 2.5 15.429688 2.75 15.429688 3 Z M 15.429688 7 "/>
</g>
</svg>
