<?xml version="1.0" encoding="UTF-8"?>
<svg xmlns="http://www.w3.org/2000/svg" xmlns:xlink="http://www.w3.org/1999/xlink" width="20pt" height="20pt" viewBox="0 0 20 20" version="1.1">
<g id="surface1">
<path style=" stroke:none;fill-rule:nonzero;fill:rgb(0%,0%,0%);fill-opacity:1;" d="M 0 6.5625 L 0 5.9375 C 0 5.417969 0.417969 5 0.9375 5 L 15 5 L 15 3.125 C 15 2.289062 16.011719 1.875 16.601562 2.460938 L 19.726562 5.585938 C 20.089844 5.953125 20.089844 6.546875 19.726562 6.914062 L 16.601562 10.039062 C 16.015625 10.625 15 10.214844 15 9.375 L 15 7.5 L 0.9375 7.5 C 0.417969 7.5 0 7.082031 0 6.5625 Z M 19.0625 12.5 L 5 12.5 L 5 10.625 C 5 9.792969 3.988281 9.371094 3.398438 9.960938 L 0.273438 13.085938 C -0.0898438 13.453125 -0.0898438 14.046875 0.273438 14.414062 L 3.398438 17.539062 C 3.988281 18.125 5 17.710938 5 16.875 L 5 15 L 19.0625 15 C 19.582031 15 20 14.582031 20 14.0625 L 20 13.4375 C 20 12.917969 19.582031 12.5 19.0625 12.5 Z M 19.0625 12.5 "/>
</g>
</svg>
