<?xml version="1.0" encoding="UTF-8"?>
<svg xmlns="http://www.w3.org/2000/svg" xmlns:xlink="http://www.w3.org/1999/xlink" width="15pt" height="20pt" viewBox="0 0 15 20" version="1.1">
<g id="surface1">
<path style=" stroke:none;fill-rule:nonzero;fill:rgb(0%,0%,0%);fill-opacity:1;" d="M 8.75 5.3125 L 8.75 0 L 0.9375 0 C 0.417969 0 0 0.417969 0 0.9375 L 0 19.0625 C 0 19.582031 0.417969 20 0.9375 20 L 14.0625 20 C 14.582031 20 15 19.582031 15 19.0625 L 15 6.25 L 9.6875 6.25 C 9.171875 6.25 8.75 5.828125 8.75 5.3125 Z M 2.5 2.8125 C 2.5 2.640625 2.640625 2.5 2.8125 2.5 L 5.9375 2.5 C 6.109375 2.5 6.25 2.640625 6.25 2.8125 L 6.25 3.4375 C 6.25 3.609375 6.109375 3.75 5.9375 3.75 L 2.8125 3.75 C 2.640625 3.75 2.5 3.609375 2.5 3.4375 Z M 2.5 5.3125 C 2.5 5.140625 2.640625 5 2.8125 5 L 5.9375 5 C 6.109375 5 6.25 5.140625 6.25 5.3125 L 6.25 5.9375 C 6.25 6.109375 6.109375 6.25 5.9375 6.25 L 2.8125 6.25 C 2.640625 6.25 2.5 6.109375 2.5 5.9375 Z M 10.03125 15 L 11.875 15 C 12.21875 15 12.5 15.28125 12.5 15.625 C 12.5 15.96875 12.21875 16.25 11.875 16.25 L 10.03125 16.25 C 9.390625 16.25 8.808594 15.894531 8.523438 15.316406 C 8.40625 15.085938 8.207031 15.0625 8.125 15.0625 C 8.042969 15.0625 7.84375 15.085938 7.734375 15.304688 L 7.433594 15.90625 C 7.328125 16.117188 7.113281 16.25 6.875 16.25 C 6.859375 16.25 6.847656 16.25 6.832031 16.246094 C 6.578125 16.230469 6.363281 16.0625 6.28125 15.820312 L 5.625 13.851562 L 5.210938 15.097656 C 4.980469 15.785156 4.335938 16.25 3.609375 16.25 L 3.125 16.25 C 2.78125 16.25 2.5 15.96875 2.5 15.625 C 2.5 15.28125 2.78125 15 3.125 15 L 3.609375 15 C 3.796875 15 3.964844 14.878906 4.023438 14.699219 L 4.734375 12.566406 C 4.863281 12.183594 5.222656 11.925781 5.625 11.925781 C 6.027344 11.925781 6.386719 12.183594 6.515625 12.566406 L 7.054688 14.191406 C 7.828125 13.5625 9.167969 13.8125 9.632812 14.746094 C 9.714844 14.90625 9.867188 15 10.03125 15 Z M 14.726562 4.101562 L 10.902344 0.273438 C 10.726562 0.0976562 10.488281 0 10.238281 0 L 10 0 L 10 5 L 15 5 L 15 4.761719 C 15 4.515625 14.902344 4.277344 14.726562 4.101562 Z M 14.726562 4.101562 "/>
</g>
</svg>
