<?xml version="1.0" encoding="UTF-8"?>
<svg xmlns="http://www.w3.org/2000/svg" xmlns:xlink="http://www.w3.org/1999/xlink" width="15pt" height="20pt" viewBox="0 0 15 20" version="1.1">
<g id="surface1">
<path style=" stroke:none;fill-rule:nonzero;fill:rgb(0%,0%,0%);fill-opacity:1;" d="M 14.726562 4.101562 L 10.902344 0.273438 C 10.726562 0.0976562 10.488281 0 10.238281 0 L 10 0 L 10 5 L 15 5 L 15 4.761719 C 15 4.515625 14.902344 4.277344 14.726562 4.101562 Z M 8.75 5.3125 L 8.75 0 L 0.9375 0 C 0.417969 0 0 0.417969 0 0.9375 L 0 19.0625 C 0 19.582031 0.417969 20 0.9375 20 L 14.0625 20 C 14.582031 20 15 19.582031 15 19.0625 L 15 6.25 L 9.6875 6.25 C 9.171875 6.25 8.75 5.828125 8.75 5.3125 Z M 2.5 2.8125 C 2.5 2.640625 2.640625 2.5 2.8125 2.5 L 5.9375 2.5 C 6.109375 2.5 6.25 2.640625 6.25 2.8125 L 6.25 3.4375 C 6.25 3.609375 6.109375 3.75 5.9375 3.75 L 2.8125 3.75 C 2.640625 3.75 2.5 3.609375 2.5 3.4375 Z M 2.5 5.9375 L 2.5 5.3125 C 2.5 5.140625 2.640625 5 2.8125 5 L 5.9375 5 C 6.109375 5 6.25 5.140625 6.25 5.3125 L 6.25 5.9375 C 6.25 6.109375 6.109375 6.25 5.9375 6.25 L 2.8125 6.25 C 2.640625 6.25 2.5 6.109375 2.5 5.9375 Z M 8.125 16.246094 L 8.125 17.1875 C 8.125 17.359375 7.984375 17.5 7.8125 17.5 L 7.1875 17.5 C 7.015625 17.5 6.875 17.359375 6.875 17.1875 L 6.875 16.238281 C 6.433594 16.214844 6.003906 16.0625 5.648438 15.796875 C 5.496094 15.679688 5.488281 15.453125 5.628906 15.320312 L 6.085938 14.882812 C 6.195312 14.78125 6.355469 14.773438 6.480469 14.855469 C 6.632812 14.949219 6.804688 15 6.984375 15 L 8.082031 15 C 8.335938 15 8.542969 14.769531 8.542969 14.484375 C 8.542969 14.253906 8.402344 14.046875 8.199219 13.988281 L 6.441406 13.460938 C 5.714844 13.242188 5.207031 12.546875 5.207031 11.765625 C 5.207031 10.808594 5.953125 10.03125 6.875 10.003906 L 6.875 9.0625 C 6.875 8.890625 7.015625 8.75 7.1875 8.75 L 7.8125 8.75 C 7.984375 8.75 8.125 8.890625 8.125 9.0625 L 8.125 10.011719 C 8.566406 10.035156 8.996094 10.1875 9.351562 10.453125 C 9.503906 10.570312 9.511719 10.796875 9.371094 10.929688 L 8.914062 11.367188 C 8.804688 11.46875 8.644531 11.476562 8.515625 11.394531 C 8.367188 11.300781 8.195312 11.25 8.015625 11.25 L 6.917969 11.25 C 6.664062 11.25 6.457031 11.480469 6.457031 11.765625 C 6.457031 11.996094 6.597656 12.203125 6.800781 12.261719 L 8.558594 12.789062 C 9.285156 13.007812 9.792969 13.703125 9.792969 14.484375 C 9.792969 15.441406 9.046875 16.21875 8.125 16.246094 Z M 8.125 16.246094 "/>
</g>
</svg>
