<?xml version="1.0" encoding="UTF-8"?>
<svg xmlns="http://www.w3.org/2000/svg" xmlns:xlink="http://www.w3.org/1999/xlink" width="20pt" height="20pt" viewBox="0 0 20 20" version="1.1">
<g id="surface1">
<path style=" stroke:none;fill-rule:nonzero;fill:rgb(0%,0%,0%);fill-opacity:1;" d="M 19.726562 7.789062 L 18.839844 6.902344 C 18.476562 6.539062 17.882812 6.539062 17.515625 6.902344 L 17.292969 7.125 L 12.875 2.707031 L 13.097656 2.484375 C 13.460938 2.117188 13.460938 1.523438 13.097656 1.160156 L 12.210938 0.273438 C 11.847656 -0.0898438 11.253906 -0.0898438 10.886719 0.273438 L 6.023438 5.136719 C 5.660156 5.503906 5.660156 6.09375 6.023438 6.460938 L 6.910156 7.34375 C 7.273438 7.710938 7.867188 7.710938 8.234375 7.34375 L 8.457031 7.125 L 10.003906 8.671875 L 6.835938 11.835938 L 6.617188 11.617188 C 6.128906 11.128906 5.335938 11.128906 4.847656 11.617188 L 0.367188 16.097656 C -0.121094 16.585938 -0.121094 17.378906 0.367188 17.867188 L 2.132812 19.632812 C 2.621094 20.121094 3.414062 20.121094 3.902344 19.632812 L 8.382812 15.152344 C 8.871094 14.664062 8.871094 13.871094 8.382812 13.382812 L 8.164062 13.164062 L 11.328125 9.996094 L 12.875 11.542969 L 12.65625 11.765625 C 12.289062 12.132812 12.289062 12.726562 12.65625 13.089844 L 13.539062 13.976562 C 13.90625 14.339844 14.496094 14.339844 14.863281 13.976562 L 19.726562 9.113281 C 20.089844 8.746094 20.089844 8.152344 19.726562 7.789062 Z M 19.726562 7.789062 "/>
</g>
</svg>
