<?xml version="1.0" encoding="UTF-8"?>
<svg xmlns="http://www.w3.org/2000/svg" xmlns:xlink="http://www.w3.org/1999/xlink" width="25pt" height="20pt" viewBox="0 0 25 20" version="1.1">
<g id="surface1">
<path style=" stroke:none;fill-rule:nonzero;fill:rgb(0%,0%,0%);fill-opacity:1;" d="M 24.375 16.25 L 14.902344 16.25 C 14.875 17.023438 14.328125 17.5 13.625 17.5 L 11.25 17.5 C 10.519531 17.5 9.960938 16.816406 9.96875 16.25 L 0.625 16.25 C 0.28125 16.25 0 16.53125 0 16.875 L 0 17.5 C 0 18.875 1.125 20 2.5 20 L 22.5 20 C 23.875 20 25 18.875 25 17.5 L 25 16.875 C 25 16.53125 24.71875 16.25 24.375 16.25 Z M 22.5 1.875 C 22.5 0.84375 21.65625 0 20.625 0 L 4.375 0 C 3.34375 0 2.5 0.84375 2.5 1.875 L 2.5 15 L 22.5 15 Z M 20 12.5 L 5 12.5 L 5 2.5 L 20 2.5 Z M 20 12.5 "/>
</g>
</svg>
