<?xml version="1.0" encoding="UTF-8"?>
<svg xmlns="http://www.w3.org/2000/svg" xmlns:xlink="http://www.w3.org/1999/xlink" width="18pt" height="20pt" viewBox="0 0 18 20" version="1.1">
<g id="surface1">
<path style=" stroke:none;fill-rule:nonzero;fill:rgb(0%,0%,0%);fill-opacity:1;" d="M 0.710938 12.980469 L 17.292969 12.980469 L 17.292969 13.839844 C 17.292969 15.3125 16.117188 16.496094 14.667969 16.496094 L 13.90625 16.496094 L 10.417969 20 L 10.417969 16.496094 L 3.335938 16.496094 C 1.886719 16.496094 0.710938 15.3125 0.710938 13.839844 Z M 0.710938 12.058594 L 17.292969 12.058594 L 17.292969 8.738281 L 0.710938 8.738281 Z M 0.710938 7.785156 L 17.292969 7.785156 L 17.292969 4.464844 L 0.710938 4.464844 Z M 14.664062 0 L 3.335938 0 C 1.886719 0 0.710938 1.183594 0.710938 2.644531 L 0.710938 3.515625 L 17.292969 3.515625 L 17.292969 2.644531 C 17.289062 1.183594 16.113281 0 14.664062 0 Z M 14.664062 0 "/>
</g>
</svg>
