<?xml version="1.0" encoding="UTF-8"?>
<svg xmlns="http://www.w3.org/2000/svg" xmlns:xlink="http://www.w3.org/1999/xlink" width="25pt" height="20pt" viewBox="0 0 25 20" version="1.1">
<g id="surface1">
<path style=" stroke:none;fill-rule:nonzero;fill:rgb(0%,0%,0%);fill-opacity:1;" d="M 0.699219 4.828125 L 0.214844 5.554688 C -0.339844 6.386719 0.253906 7.5 1.253906 7.5 L 4.15625 7.5 Z M 22.5 16.148438 L 22.5 8.75 L 20 8.75 L 20 14.21875 L 15 10.351562 L 15 8.75 L 12.925781 8.75 L 11.308594 7.5 L 23.75 7.5 C 24.746094 7.5 25.339844 6.386719 24.789062 5.554688 L 21.457031 0.554688 C 21.222656 0.207031 20.832031 0 20.414062 0 L 4.585938 0 C 4.167969 0 3.777344 0.207031 3.546875 0.554688 L 3.132812 1.179688 L 1.777344 0.132812 C 1.503906 -0.078125 1.109375 -0.03125 0.898438 0.242188 L 0.132812 1.230469 C -0.0820312 1.5 -0.03125 1.894531 0.242188 2.105469 L 23.222656 19.867188 C 23.355469 19.96875 23.519531 20.015625 23.683594 19.996094 C 23.851562 19.976562 24 19.890625 24.101562 19.757812 L 24.867188 18.773438 C 25.082031 18.5 25.03125 18.105469 24.757812 17.894531 Z M 12.5 15 L 5 15 L 5 8.75 L 2.5 8.75 L 2.5 18.75 C 2.5 19.441406 3.058594 20 3.75 20 L 13.75 20 C 14.441406 20 15 19.441406 15 18.75 L 15 15.882812 L 12.5 13.949219 Z M 12.5 15 "/>
</g>
</svg>
