<?xml version="1.0" encoding="UTF-8"?>
<svg xmlns="http://www.w3.org/2000/svg" xmlns:xlink="http://www.w3.org/1999/xlink" width="25pt" height="20pt" viewBox="0 0 25 20" version="1.1">
<g id="surface1">
<path style=" stroke:none;fill-rule:nonzero;fill:rgb(0%,0%,0%);fill-opacity:1;" d="M 24.308594 10.589844 L 19.808594 8.832031 C 19.648438 8.769531 19.316406 8.6875 18.941406 8.832031 L 14.441406 10.589844 C 14.023438 10.753906 13.75 11.136719 13.75 11.5625 C 13.75 15.921875 16.433594 18.9375 18.941406 19.917969 C 19.316406 20.0625 19.644531 19.980469 19.808594 19.917969 C 21.8125 19.136719 25 16.425781 25 11.5625 C 25 11.136719 24.726562 10.753906 24.308594 10.589844 Z M 19.375 18.0625 L 19.375 10.675781 L 23.105469 12.132812 C 22.886719 15.535156 20.726562 17.421875 19.375 18.0625 Z M 8.75 10 C 11.511719 10 13.75 7.761719 13.75 5 C 13.75 2.238281 11.511719 0 8.75 0 C 5.988281 0 3.75 2.238281 3.75 5 C 3.75 7.761719 5.988281 10 8.75 10 Z M 12.5 11.5625 C 12.5 11.464844 12.53125 11.375 12.542969 11.28125 C 12.445312 11.277344 12.351562 11.25 12.25 11.25 L 11.597656 11.25 C 10.730469 11.648438 9.765625 11.875 8.75 11.875 C 7.734375 11.875 6.773438 11.648438 5.902344 11.25 L 5.25 11.25 C 2.351562 11.25 0 13.601562 0 16.5 L 0 18.125 C 0 19.160156 0.839844 20 1.875 20 L 15.625 20 C 15.890625 20 16.144531 19.941406 16.375 19.84375 C 14.265625 18.167969 12.5 15.285156 12.5 11.5625 Z M 12.5 11.5625 "/>
</g>
</svg>
